HIERARCHY
ROOT Hips
{
	OFFSET 0.000000 0.000000 0.000000
	CHANNELS 6 Xposition Yposition Zposition Zrotation Yrotation Xrotation 
	JOINT LHipJoint
	{
		OFFSET 0.000000 0.000000 0.000000
		CHANNELS 3 Zrotation Yrotation Xrotation
		JOINT LeftUpLeg
		{
			OFFSET 1.363060 -1.794630 0.839290
			CHANNELS 3 Zrotation Yrotation Xrotation
			JOINT LeftLeg
			{
				OFFSET 2.448110 -6.726130 0.000000
				CHANNELS 3 Zrotation Yrotation Xrotation
				JOINT LeftFoot
				{
					OFFSET 2.562200 -7.039590 0.000000
					CHANNELS 3 Zrotation Yrotation Xrotation
					JOINT LeftToeBase
					{
						OFFSET 0.157640 -0.433110 2.322550
						CHANNELS 3 Zrotation Yrotation Xrotation
						End Site
						{
							OFFSET 0.000000 0.000000 0.000000
						}
					}
				}
			}
		}
	}
	JOINT RHipJoint
	{
		OFFSET 0.000000 0.000000 0.000000
		CHANNELS 3 Zrotation Yrotation Xrotation
		JOINT RightUpLeg
		{
			OFFSET -1.305520 -1.794630 0.839290
			CHANNELS 3 Zrotation Yrotation Xrotation
			JOINT RightLeg
			{
				OFFSET -2.542530 -6.985550 0.000000
				CHANNELS 3 Zrotation Yrotation Xrotation
				JOINT RightFoot
				{
					OFFSET -2.568260 -7.056230 0.000000
					CHANNELS 3 Zrotation Yrotation Xrotation
					JOINT RightToeBase
					{
						OFFSET -0.164730 -0.452590 2.363150
						CHANNELS 3 Zrotation Yrotation Xrotation
						End Site
						{
							OFFSET 0.000000 0.000000 0.000000
						}
					}
				}
			}
		}
	}
	JOINT LowerBack
	{
		OFFSET 0.000000 0.000000 0.000000
		CHANNELS 3 Zrotation Yrotation Xrotation
		JOINT Spine
		{
			OFFSET 0.028270 2.035590 -0.193380
			CHANNELS 3 Zrotation Yrotation Xrotation
			JOINT Spine1
			{
				OFFSET 0.056720 2.048850 -0.042750
				CHANNELS 3 Zrotation Yrotation Xrotation
				JOINT Neck
				{
					OFFSET 0.000000 0.000000 0.000000
					CHANNELS 3 Zrotation Yrotation Xrotation
					JOINT Neck1
					{
						OFFSET -0.054170 1.746240 0.172020
						CHANNELS 3 Zrotation Yrotation Xrotation
						JOINT Head
						{
							OFFSET 0.104070 1.761360 -0.123970
							CHANNELS 3 Zrotation Yrotation Xrotation
							End Site
							{
								OFFSET 0.000000 0.000000 0.000000
							}
						}
					}
				}
				JOINT LeftShoulder
				{
					OFFSET 0.000000 0.000000 0.000000
					CHANNELS 3 Zrotation Yrotation Xrotation
					JOINT LeftArm
					{
						OFFSET 3.362410 1.200890 -0.311210
						CHANNELS 3 Zrotation Yrotation Xrotation
						JOINT LeftForeArm
						{
							OFFSET 4.983000 -0.000000 -0.000000
							CHANNELS 3 Zrotation Yrotation Xrotation
							JOINT LeftHand
							{
								OFFSET 3.483560 -0.000000 -0.000000
								CHANNELS 3 Zrotation Yrotation Xrotation
								JOINT LeftFingerBase
								{
									OFFSET 0.000000 0.000000 0.000000
									CHANNELS 3 Zrotation Yrotation Xrotation
									JOINT LeftHandIndex1
									{
										OFFSET 0.715260 -0.000000 -0.000000
										CHANNELS 3 Zrotation Yrotation Xrotation
										End Site
										{
											OFFSET 0.000000 0.000000 0.000000
										}
									}
								}
								JOINT LThumb
								{
									OFFSET 0.000000 0.000000 0.000000
									CHANNELS 3 Zrotation Yrotation Xrotation
									End Site
									{
										OFFSET 0.000000 0.000000 0.000000
									}
								}
							}
						}
					}
				}
				JOINT RightShoulder
				{
					OFFSET 0.000000 0.000000 0.000000
					CHANNELS 3 Zrotation Yrotation Xrotation
					JOINT RightArm
					{
						OFFSET -3.136600 1.374050 -0.404650
						CHANNELS 3 Zrotation Yrotation Xrotation
						JOINT RightForeArm
						{
							OFFSET -5.241900 -0.000000 -0.000000
							CHANNELS 3 Zrotation Yrotation Xrotation
							JOINT RightHand
							{
								OFFSET -3.444170 -0.000000 -0.000000
								CHANNELS 3 Zrotation Yrotation Xrotation
								JOINT RightFingerBase
								{
									OFFSET 0.000000 0.000000 0.000000
									CHANNELS 3 Zrotation Yrotation Xrotation
									JOINT RightHandIndex1
									{
										OFFSET -0.622530 -0.000000 -0.000000
										CHANNELS 3 Zrotation Yrotation Xrotation
										End Site
										{
											OFFSET 0.000000 0.000000 0.000000
										}
									}
								}
								JOINT RThumb
								{
									OFFSET 0.000000 0.000000 0.000000
									CHANNELS 3 Zrotation Yrotation Xrotation
									End Site
									{
										OFFSET 0.000000 0.000000 0.000000
									}
								}
							}
						}
					}
				}
			}
		}
	}
}
MOTION
Frames: 10
Frame Time: 0.008333
-5.426937 16.722873 0.439377 -165.234314 81.114111 -143.140117 -11.987776 0.864344 -2.397923 -3.921231 -2.886863 -8.514931 -1.361862 1.629483 30.966865 0.785319 3.299107 -10.148106 -0.244700 -0.000001 -58.191399 6.939256 0.592452 1.233250 4.154318 11.321874 -42.197350 2.822273 -0.611806 12.699140 1.295822 7.654175 12.280758 2.070700 0.000000 -50.506000 7.194306 -1.752315 4.562562 0.258628 -1.997784 -1.664415 -8.145943 -2.008253 1.289386 7.236470 1.658112 4.453789 -5.654329 -0.442497 2.798054 0.000000 0.000000 0.000000 -6.217801 -5.393254 1.504958 -57.272134 -29.041828 11.579794 -2.710684 -48.233545 -0.020819 7.298923 -3.347682 -0.234439 -0.170441 0.265524 0.000000 0.000000 0.000000 0.000000 0.000000 0.000000 0.000000 20.965705 -2.951245 0.096498 63.109097 7.503681 -15.206749 3.330331 17.167927 0.010353 -0.580119 7.113202 -0.041451 0.085438 -0.071762 -0.000000 0.000000 0.000000 0.000000 0.000000 0.000000 0.000000 
-5.306616 16.746118 0.441350 -164.610959 80.396779 -142.328145 -12.226580 0.846864 -2.396161 -3.198686 -2.667686 -9.507768 -1.211963 1.792346 32.537097 0.781158 3.467838 -8.897348 -0.157900 0.000000 -60.113501 6.762734 0.506191 1.175400 4.727813 11.416361 -42.197856 2.858009 -0.633460 13.570137 1.215742 6.937926 11.094889 1.684901 0.000000 -49.263800 7.711742 -1.768054 4.615038 0.370599 -2.031806 -1.680272 -8.121371 -2.053509 1.227305 7.476265 2.025210 4.606653 -5.651869 -0.441751 2.841231 0.000000 0.000000 0.000000 -6.067984 -5.611738 1.464701 -58.323359 -28.534667 10.989732 -2.725717 -46.961697 -0.021949 7.666573 -3.480838 -0.254909 -0.167229 0.261814 0.000000 0.000000 0.000000 0.000000 0.000000 0.000000 0.000000 21.185481 -2.756836 0.109755 62.972832 8.465879 -15.679770 3.335982 16.251531 0.010147 -0.756442 7.093569 -0.052460 0.085900 -0.071710 -0.000000 0.000000 0.000000 0.000000 0.000000 0.000000 0.000000 
-5.190634 16.773319 0.447450 -164.639887 79.628608 -142.182980 -12.432820 0.823262 -2.411305 -2.578961 -2.439926 -10.579123 -1.053976 1.956711 34.200109 0.790056 3.683151 -7.475415 -0.061100 -0.000000 -61.609800 6.617060 0.439325 1.106900 5.197266 11.443286 -42.060719 2.887700 -0.635316 14.237064 1.124539 6.234248 9.880828 1.330800 -0.000000 -48.263299 8.118674 -1.808771 4.702723 0.464073 -2.082672 -1.690063 -8.082866 -2.116026 1.155949 7.780709 2.398991 4.768771 -5.632041 -0.440326 2.887974 0.000000 0.000000 0.000000 -5.773133 -5.895814 1.416393 -59.449081 -28.003656 10.371615 -2.728374 -45.549985 -0.023291 8.075265 -3.588178 -0.275690 -0.163370 0.257616 0.000000 0.000000 0.000000 0.000000 0.000000 0.000000 0.000000 21.400426 -2.556454 0.124469 62.899157 9.467521 -16.200987 3.332942 15.305465 0.009875 -0.927500 7.053890 -0.062868 0.086021 -0.071605 -0.000000 0.000000 0.000000 0.000000 0.000000 0.000000 0.000000 
-5.078261 16.803264 0.457954 -165.212685 78.815336 -142.593760 -12.604550 0.795012 -2.437616 -2.072795 -2.209992 -11.719256 -0.890603 2.117999 35.931358 0.815586 3.956040 -5.916614 0.046200 0.000000 -62.504100 6.507945 0.391804 1.030281 5.557385 11.390915 -41.801796 2.908558 -0.620147 14.699668 1.024547 5.550376 8.726217 1.017800 -0.000000 -47.472201 8.412800 -1.871561 4.813906 0.537942 -2.148706 -1.695789 -8.031144 -2.193840 1.077388 8.144043 2.783877 4.938413 -5.592886 -0.438176 2.937971 0.000000 0.000000 0.000000 -5.360575 -6.230827 1.366607 -60.604636 -27.473126 9.774147 -2.720853 -44.012546 -0.024749 8.506389 -3.661270 -0.295377 -0.159179 0.252959 0.000000 0.000000 0.000000 0.000000 0.000000 0.000000 0.000000 21.596923 -2.335039 0.138906 62.899627 10.465751 -16.772329 3.320809 14.378626 0.009538 -1.076021 6.989535 -0.071376 0.085673 -0.071472 -0.000000 0.000000 0.000000 0.000000 0.000000 0.000000 0.000000 
-4.968701 16.834796 0.472868 -166.237574 77.962689 -143.466471 -12.739791 0.762994 -2.470132 -1.694006 -1.989150 -12.909342 -0.725172 2.271156 37.699819 0.861274 4.305835 -4.268621 0.166900 0.000000 -62.638000 6.440137 0.363276 0.945998 5.804976 11.244301 -41.443773 2.917749 -0.592736 14.977208 0.919460 4.895818 7.693721 0.749701 0.000000 -46.851100 8.589663 -1.951581 4.940882 0.590579 -2.225999 -1.697325 -7.966830 -2.282483 0.997676 8.557856 3.142037 5.103742 -5.536711 -0.435451 2.987892 0.000000 0.000000 0.000000 -4.848456 -6.617657 1.315867 -61.759330 -26.950425 9.228517 -2.704696 -42.376430 -0.026161 8.928140 -3.695909 -0.312167 -0.154772 0.247843 0.000000 0.000000 0.000000 0.000000 0.000000 0.000000 0.000000 21.776757 -2.124695 0.152839 62.966370 11.473578 -17.302048 3.301066 13.490072 0.009153 -1.211881 6.907933 -0.078885 0.084983 -0.071285 -0.000000 0.000000 0.000000 0.000000 0.000000 0.000000 0.000000 
-4.861132 16.866855 0.491556 -167.581775 77.074903 -144.662694 -12.843202 0.727108 -2.503040 -1.437781 -1.778419 -14.141219 -0.561837 2.412591 39.480632 0.928261 4.744198 -2.595553 0.304900 0.000000 -61.887100 6.410827 0.350047 0.858163 5.950780 11.003952 -41.013888 2.914824 -0.556397 15.090348 0.812404 4.267149 6.826470 0.521300 -0.000000 -46.358199 8.663225 -2.042608 5.070919 0.624248 -2.310395 -1.696737 -7.891129 -2.377534 0.919645 9.009494 3.479853 5.263531 -5.463111 -0.432146 3.037254 0.000000 0.000000 0.000000 -4.282815 -7.034629 1.270534 -62.869721 -26.460474 8.791135 -2.685648 -40.662778 -0.027377 9.309247 -3.682069 -0.323756 -0.150523 0.242289 0.000000 0.000000 0.000000 0.000000 0.000000 0.000000 0.000000 21.924575 -1.909280 0.164641 63.102045 12.450406 -17.783584 3.274580 12.691022 0.008730 -1.316479 6.807058 -0.083892 0.083850 -0.071065 -0.000000 0.000000 0.000000 0.000000 0.000000 0.000000 0.000000 
-4.754860 16.898641 0.513242 -169.129746 76.160174 -146.065281 -12.918420 0.687269 -2.533913 -1.300314 -1.577540 -15.393781 -0.405203 2.539610 41.240172 1.016291 5.283865 -0.964244 0.465600 0.000000 -60.281000 6.416069 0.349079 0.768654 6.007147 10.675582 -40.534609 2.899827 -0.514744 15.069059 0.705983 3.662584 6.137090 0.325800 0.000001 -45.953200 8.647606 -2.137499 5.198535 0.641168 -2.396125 -1.694199 -7.805541 -2.472914 0.847103 9.485040 3.783894 5.412671 -5.374403 -0.428364 3.084296 0.000000 0.000000 0.000000 -3.706259 -7.471274 1.233711 -63.899434 -26.010742 8.500240 -2.668540 -38.910360 -0.028238 9.607782 -3.604478 -0.326842 -0.146577 0.236265 0.000000 0.000000 0.000000 0.000000 0.000000 0.000000 0.000000 22.035014 -1.697114 0.174190 63.297276 13.392583 -18.183480 3.243708 12.006802 0.008296 -1.376231 6.691595 -0.085899 0.082264 -0.070829 -0.000000 0.000000 0.000000 0.000000 0.000000 0.000000 0.000000 
-4.649219 16.929264 0.536486 -170.744781 75.216887 -147.524546 -12.974653 0.642126 -2.556597 -1.254660 -1.378183 -16.684769 -0.259654 2.652665 42.981196 1.122487 5.926185 0.527230 0.650400 0.000000 -57.484800 6.445714 0.353778 0.685904 6.002100 10.274960 -40.044832 2.876317 -0.468935 14.941458 0.601338 3.070778 5.618738 0.152200 0.000000 -45.600700 8.574105 -2.228065 5.305425 0.647622 -2.477846 -1.692540 -7.709909 -2.563180 0.784158 9.967478 4.043037 5.546914 -5.272359 -0.424173 3.127731 0.000000 0.000000 0.000000 -3.149246 -7.911211 1.204213 -64.845283 -25.614812 8.395268 -2.658634 -37.124886 -0.028606 9.797378 -3.478170 -0.321617 -0.143100 0.229840 0.000000 0.000000 0.000000 0.000000 0.000000 0.000000 0.000000 22.096066 -1.496100 0.180047 63.535839 14.292033 -18.385058 3.211120 11.460738 0.007878 -1.421463 6.582339 -0.087104 0.080500 -0.070584 -0.000000 0.000000 0.000000 0.000000 0.000000 0.000000 0.000000 
-4.543928 16.958549 0.560423 -172.344971 74.263842 -148.965574 -13.013755 0.592293 -2.574955 -1.294626 -1.173671 -17.975487 -0.128735 2.751636 44.656788 1.243962 6.676383 1.830638 0.862199 0.000000 -53.961000 6.494127 0.362631 0.608405 5.950659 9.821094 -39.549973 2.845475 -0.421541 14.742077 0.498986 2.492039 5.237085 -0.005700 0.000000 -45.271700 8.459649 -2.307452 5.397680 0.646261 -2.548822 -1.690473 -7.607080 -2.641515 0.731316 10.445091 4.261676 5.667598 -5.159963 -0.419667 3.167325 0.000000 0.000000 0.000000 -2.659090 -8.344362 1.186446 -65.669404 -25.267936 8.497893 -2.660071 -35.363918 -0.028384 9.832223 -3.274157 -0.304383 -0.140013 0.222892 0.000000 0.000000 0.000000 0.000000 0.000000 0.000000 0.000000 22.107024 -1.300449 0.182979 63.805999 15.145099 -18.429307 3.179233 11.068652 0.007501 -1.414049 6.478826 -0.085208 0.078385 -0.070391 -0.000000 0.000000 0.000000 0.000000 0.000000 0.000000 0.000000 
-4.438831 16.986258 0.583765 -173.845052 73.309921 -150.299555 -13.041575 0.537363 -2.589024 -1.396730 -0.953479 -19.264714 -0.014632 2.838912 46.257547 1.376508 7.526449 2.883215 1.096900 -0.000000 -49.786299 6.551814 0.371500 0.540190 5.878218 9.337950 -39.069269 2.811215 -0.372806 14.498858 0.398417 1.921068 4.948745 -0.154500 -0.000000 -44.945300 8.331689 -2.369449 5.469656 0.642435 -2.604106 -1.688847 -7.498331 -2.702997 0.690401 10.905858 4.444302 5.775062 -5.039386 -0.414897 3.202866 0.000000 0.000000 0.000000 -2.264638 -8.750706 1.180535 -66.369187 -24.978831 8.829903 -2.676685 -33.645155 -0.027514 9.687749 -2.997732 -0.275439 -0.137282 0.215433 0.000000 0.000000 0.000000 0.000000 0.000000 0.000000 0.000000 22.063181 -1.105577 0.181987 64.090056 15.945282 -18.270154 3.150006 10.845850 0.007183 -1.364067 6.392833 -0.081110 0.076043 -0.070275 -0.000000 0.000000 0.000000 0.000000 0.000000 0.000000 0.000000 
